<svg width="85" height="68" viewBox="0 0 85 68" fill="none" xmlns="http://www.w3.org/2000/svg">
<g filter="url(#filter0_d_56_81)">
<path d="M38.3228 47.8C38.4295 49.4 38.4828 50.6267 38.4828 51.48C38.4828 54.04 38.1628 56.6 37.5228 59.16C35.1761 59.16 31.6561 59.2133 26.9628 59.32L16.5628 59.4C11.8161 59.4 7.38948 59.24 3.28281 58.92V57.4L1.68281 57.32C1.68281 54.5467 1.65615 51.32 1.60281 47.64C1.54948 43.96 1.49615 41.16 1.44281 39.24C1.28281 33.48 1.20281 27.6933 1.20281 21.88C1.20281 15.16 1.41615 8.22667 1.84281 1.08C6.00281 0.866665 10.8028 0.706665 16.2428 0.599997C21.7361 0.439999 26.2695 0.36 29.8428 0.36C34.0561 0.36 36.2695 0.679999 36.4828 1.32C36.4828 1.69333 36.5628 1.98666 36.7228 2.2C36.9361 2.36 37.2028 2.49333 37.5228 2.6C37.8428 2.70666 38.0295 2.81333 38.0828 2.92V2.84C38.2961 4.06666 38.4028 5.48 38.4028 7.08C38.4028 7.93333 38.3495 9.21333 38.2428 10.92C38.1361 12.7333 38.0828 14.12 38.0828 15.08C35.3628 15.72 31.9228 16.04 27.7628 16.04H24.8828L21.7628 15.96C20.1095 15.96 18.4561 16.04 16.8028 16.2C16.8028 17 16.7495 18.04 16.6428 19.32L16.5628 21.96V22.68L18.0028 22.76L21.1228 22.68C21.3895 22.68 22.7228 22.76 25.1228 22.92C25.1761 23.08 25.2295 23.3467 25.2828 23.72C25.3361 24.04 25.4428 24.2533 25.6028 24.36C25.8161 24.4667 26.1895 24.52 26.7228 24.52C26.9895 25.9067 27.1228 27.5333 27.1228 29.4C27.1228 31.0533 27.0961 32.3067 27.0428 33.16L26.9628 37C25.3628 37.4267 23.3095 37.64 20.8028 37.64C18.8295 37.64 17.6295 37.6933 17.2028 37.8C17.0428 38.6 16.9628 39.8267 16.9628 41.48C16.9628 43.08 16.9895 44.2267 17.0428 44.92C23.4428 45.24 28.5095 45.4 32.2428 45.4C33.5228 45.4 35.0161 45.3467 36.7228 45.24V46.2L36.8028 46.92C37.4428 46.92 37.9495 46.8933 38.3228 46.84V47.8ZM35.9228 46.12C35.1228 46.1733 33.9761 46.2 32.4828 46.2C31.1495 46.2 29.6028 46.1733 27.8428 46.12C26.0828 46.0667 24.7228 46.0133 23.7628 45.96C20.8828 45.8 17.9495 45.72 14.9628 45.72L14.8828 45.64C14.6695 44.3067 14.5628 42.3867 14.5628 39.88C14.5628 38.1733 14.6695 36.76 14.8828 35.64C15.0961 35.48 15.5761 35.3733 16.3228 35.32C17.0695 35.2667 17.8961 35.24 18.8028 35.24C21.5761 35.24 23.4961 35.08 24.5628 34.76L24.6428 27.8C24.6428 25.9333 24.5628 24.5467 24.4028 23.64V23.56C22.9628 23.56 21.8695 23.5333 21.1228 23.48C18.1895 23.48 16.0028 23.4267 14.5628 23.32L14.4828 23.24C14.2695 22.44 14.1628 21.4267 14.1628 20.2C14.1628 19.4533 14.2161 18.3867 14.3228 17L14.4028 13.88L14.7228 13.8C15.6828 13.6933 16.7228 13.64 17.8428 13.64C18.9628 13.64 19.7095 13.64 20.0828 13.64H26.4028C30.2961 13.64 33.3895 13.3733 35.6828 12.84V12.76L35.7628 9C35.8695 7.29333 35.9228 6.01333 35.9228 5.16C35.9228 3.93333 35.8428 2.68 35.6828 1.4C35.6828 1.24 33.7361 1.16 29.8428 1.16C21.5228 1.16 12.4295 1.4 2.56281 1.88C2.24281 7.05333 2.08281 13.4533 2.08281 21.08C2.08281 25.0267 2.13615 30.8933 2.24281 38.68C2.40281 44.6 2.48281 50.5733 2.48281 56.6C5.62948 56.8667 9.49615 57 14.0828 57C16.3761 57 19.9228 56.9467 24.7228 56.84L35.2828 56.76C35.8161 54.68 36.0828 52.4133 36.0828 49.96C36.0828 49.1067 36.0295 47.88 35.9228 46.28V46.12ZM77.1584 58.84C75.4518 59.2667 73.6118 59.48 71.6384 59.48L68.1184 59.4C66.5184 59.2933 65.3184 59.24 64.5184 59.24C64.1984 58.92 63.7718 58.3867 63.2384 57.64H62.9184C60.1984 54.76 57.4251 49.6933 54.5984 42.44C54.5984 44.4133 54.6518 47.32 54.7584 51.16C54.8651 54.7867 54.9184 57.3467 54.9184 58.84C53.3184 59.32 51.2118 59.56 48.5984 59.56C46.1451 59.56 43.8251 59.32 41.6384 58.84C41.5318 58.1467 41.3984 57.72 41.2384 57.56C41.1318 57.4533 40.9451 57.3733 40.6784 57.32C40.4651 57.32 40.2518 57.2933 40.0384 57.24C39.8251 52.6 39.7184 47.1867 39.7184 41C39.7184 34.44 39.7984 27.8 39.9584 21.08C40.0118 18.8933 40.0651 15.6933 40.1184 11.48C40.1718 7.21333 40.1984 3.48 40.1984 0.279996H42.1184L47.5584 0.36C48.6784 0.413332 50.3318 0.439999 52.5184 0.439999V2.04H54.1184C54.1718 4.12 54.1984 7.58667 54.1984 12.44V15.72C54.7851 14.7067 55.5584 13.24 56.5184 11.32C56.7851 10.8933 57.5051 9.56 58.6784 7.32C59.9051 5.08 61.3718 2.76 63.0784 0.36L64.5984 0.439999L69.8784 0.36C71.7451 0.36 73.5851 0.493333 75.3984 0.759999L74.9184 2.12L76.9984 2.36C76.1451 5.13333 75.0518 7.82666 73.7184 10.44C72.4384 13 70.7584 16.0667 68.6784 19.64C66.1184 23.96 64.3051 27.3467 63.2384 29.8L77.1584 58.84ZM60.7584 28.28C61.7184 26.04 62.8918 23.72 64.2784 21.32C65.6651 18.8667 66.4918 17.4267 66.7584 17C68.7851 13.5333 70.3851 10.6533 71.5584 8.36C72.7318 6.01333 73.6651 3.69333 74.3584 1.4C73.0784 1.24 71.7718 1.16 70.4384 1.16L65.5584 1.24C64.5984 1.24 63.9051 1.21333 63.4784 1.16C62.1451 3.13333 60.4118 6.09333 58.2784 10.04C56.9984 12.44 55.9318 14.36 55.0784 15.8C54.2784 17.1867 53.3451 18.5733 52.2784 19.96L51.9584 20.36L51.8784 20.44C51.8251 19.16 51.7984 17.1867 51.7984 14.52V7.16C51.7984 4.49333 51.7718 2.52 51.7184 1.24C49.7451 1.24 48.2518 1.21333 47.2384 1.16L42.5184 1.08C41.8784 1.08 41.4518 1.13333 41.2384 1.24C41.0251 1.34666 40.9184 1.56 40.9184 1.88C40.9184 8.44 40.8384 14.9733 40.6784 21.48C40.5718 30.12 40.5184 36.6 40.5184 40.92C40.5184 46.7333 40.6251 51.96 40.8384 56.6C42.5984 56.9733 44.6518 57.16 46.9984 57.16C49.3984 57.16 51.2384 56.9733 52.5184 56.6C52.5184 55.0533 52.4651 52.4667 52.3584 48.84C52.2518 44.7867 52.1984 41.8 52.1984 39.88C52.1984 38.12 52.2251 36.8133 52.2784 35.96C53.1851 37.6133 54.3851 40.12 55.8784 43.48C57.3184 46.6267 58.5984 49.2667 59.7184 51.4C60.8384 53.5333 62.0384 55.3467 63.3184 56.84L65.1584 56.92C67.1851 57.0267 68.7584 57.08 69.8784 57.08C71.6384 57.08 73.1584 56.9467 74.4384 56.68L60.7584 28.28Z" fill="#3B3B3B"/>
</g>
<defs>
<filter id="filter0_d_56_81" x="0.00312519" y="0.0800295" width="84.3551" height="67.68" filterUnits="userSpaceOnUse" color-interpolation-filters="sRGB">
<feFlood flood-opacity="0" result="BackgroundImageFix"/>
<feColorMatrix in="SourceAlpha" type="matrix" values="0 0 0 0 0 0 0 0 0 0 0 0 0 0 0 0 0 0 127 0" result="hardAlpha"/>
<feOffset dx="3" dy="4"/>
<feGaussianBlur stdDeviation="2.1"/>
<feComposite in2="hardAlpha" operator="out"/>
<feColorMatrix type="matrix" values="0 0 0 0 0.419608 0 0 0 0 0.560784 0 0 0 0 0.443137 0 0 0 1 0"/>
<feBlend mode="normal" in2="BackgroundImageFix" result="effect1_dropShadow_56_81"/>
<feBlend mode="normal" in="SourceGraphic" in2="effect1_dropShadow_56_81" result="shape"/>
</filter>
</defs>
</svg>
